<?xml version="1.0" standalone="no"?>
<!DOCTYPE svg PUBLIC "-//W3C//DTD SVG 20010904//EN"
 "http://www.w3.org/TR/2001/REC-SVG-20010904/DTD/svg10.dtd">
<svg version="1.0" xmlns="http://www.w3.org/2000/svg"
 width="500.000000pt" height="500.000000pt" viewBox="0 0 500.000000 500.000000"
 preserveAspectRatio="xMidYMid meet">

<g transform="translate(0.000000,500.000000) scale(0.100000,-0.100000)"
fill="#000000" stroke="none">
<path d="M2859 4985 c-153 -26 -285 -76 -446 -171 -115 -68 -167 -115 -257
-234 -130 -173 -211 -368 -247 -595 -6 -38 -13 -231 -16 -427 l-6 -358 -342 0
c-341 0 -342 0 -362 -22 -11 -13 -26 -33 -32 -45 -15 -30 -15 -847 0 -892 22
-63 37 -66 403 -68 180 -1 330 -4 333 -7 3 -3 5 -465 4 -1028 -1 -653 2 -1035
9 -1057 5 -19 19 -45 32 -58 l21 -23 473 0 472 0 31 35 31 36 0 1049 0 1049
393 3 c390 3 392 3 424 26 20 14 36 37 43 60 6 23 10 194 10 440 0 443 -2 457
-59 486 -26 14 -86 16 -421 16 l-390 0 0 268 c0 289 7 362 43 432 19 38 34 51
92 80 l69 35 311 5 c348 6 355 7 375 79 13 46 13 801 1 834 -6 14 -20 35 -32
46 -22 21 -29 21 -453 20 -299 -1 -454 -5 -507 -14z"/>
</g>
</svg>
